PathFileType	4	(X/Y/Z)	50_2_27_p1_0-212.trc
DataRate	CameraRate	NumFrames	NumMarkers	Units	OrigDataRate	OrigDataStartFrame	OrigNumFrames
53.0	53.0	5	27	m	53.0	79	213
Frame#	Time	RHip			RKnee			RAnkle			RBigToe			RSmallToe			RHeel			LHip			LKnee			LAnkle			LBigToe			LSmallToe			LHeel			Neck			Head			Nose			RShoulder			RElbow			RWrist			RThumb			RIndex			RPinky			LShoulder			LElbow			LWrist			LThumb			LIndex			LPinky			
		X1	Y1	Z1	X2	Y2	Z2	X3	Y3	Z3	X4	Y4	Z4	X5	Y5	Z5	X6	Y6	Z6	X7	Y7	Z7	X8	Y8	Z8	X9	Y9	Z9	X10	Y10	Z10	X11	Y11	Z11	X12	Y12	Z12	X13	Y13	Z13	X14	Y14	Z14	X15	Y15	Z15	X16	Y16	Z16	X17	Y17	Z17	X18	Y18	Z18	X19	Y19	Z19	X20	Y20	Z20	X21	Y21	Z21	X22	Y22	Z22	X23	Y23	Z23	X24	Y24	Z24	X25	Y25	Z25	X26	Y26	Z26	X27	Y27	Z27	
79	1.490566037735849	0.30666111275098934	0.7132151570998674	0.5125586661366767	0.27661316739505404	0.8290277901901141	0.9391588789093859	0.2937252806275419	1.0435506279582933	1.3738838806746514	0.24495916241690158	0.8011794620949679	1.3955886074103852	0.31187492936964184	0.8638520755114548	1.419553420213949	0.2764219614035288	1.1502787172297217	1.4378705964658276	0.09900315771814527	0.7214297312875185	0.5054244152855408	0.10204621834397631	0.873976539081059	0.9368453577742626	0.10084238142291184	1.0291006019295694	1.3564930336626615	0.09854242536001545	0.8095002975137896	1.380021115377035	0.05482175991589324	0.8406228787157398	1.3803972234589945	0.10907985635217522	1.1214674401526747	1.4218563106231947	0.208652445195138	0.5619569102330597	-0.022086543477599543	0.20888556967321642	0.38690291629739904	-0.2445878137030547	0.1901564519754603	0.3712694080723132	-0.08700892359972486	0.3574565215689537	0.5707005299510706	0.05865172981284452	0.40475519510597346	0.6885248144491449	0.32117897745951113	0.3820752310010632	0.6506814961551245	0.5810138097506528	0.3289658100077783	0.6442918082281293	0.6990633244087753	0.3520641193743647	0.6912259732025511	0.7323591680286049	0.3658334111862688	0.7041116818112578	0.7205571535863369	0.05810148101772253	0.6241860701981067	0.03707445009714863	0.00452316832470381	0.6599185879340986	0.29700800344529793	0.01056944342270784	0.6756654648304011	0.5739735489583868	0.035412020082570966	0.6923371394581946	0.6847044286827986	0.01125288740494577	0.6905842623926995	0.7006289848596354	-0.01957563704937945	0.7310370386840407	0.692620984148666
80	1.509433962264151	0.30771990704146474	0.7144136205830172	0.5128105578498802	0.2729322143437945	0.8174545912269833	0.9409522131328568	0.293715075134187	1.043568102213922	1.3738733139351782	0.2505150047767107	0.8187285399639461	1.4044534249695573	0.3123952903600053	0.8647251247778873	1.4195573661145156	0.2776202851331652	1.1484824515911864	1.4329716451681385	0.09901749843364212	0.7212793392000406	0.5053594682373816	0.10205638565677477	0.8736937753034076	0.9367881015361789	0.10071626714446764	1.0284706291030694	1.3562631369613605	0.09909567354501732	0.7778927371805218	1.370057930802261	0.054925376726473206	0.8397748715677823	1.3800977502364846	0.11281741208375815	1.0981766183221646	1.4150176361883906	0.20879179553531996	0.5620270907214222	-0.02195616002463791	0.208865949270885	0.38661293524365026	-0.2445850854055997	0.19010717163784036	0.37109238491291857	-0.08687293876566239	0.3621454724782717	0.5826923941069999	0.05731650012647365	0.4047886169638991	0.6885011354811813	0.32119938237027207	0.38199825814981464	0.6505929046646577	0.5810661658342782	0.3289438814467063	0.6451077221915262	0.6997121571666505	0.35607419781432803	0.6930782284555039	0.7331875780988736	0.3657932797718452	0.7040440692502176	0.720670355587351	0.061993569427438416	0.6261518268195636	0.03677747708792198	0.008429326495672518	0.6613179514524338	0.29693901053270794	0.010549902380569385	0.6755479224150224	0.5740391536403464	0.03520704670998862	0.6919765327107419	0.6847161732499313	0.007462970754930454	0.6891734025065831	0.7004950833072611	-0.019512798245945193	0.731008047146712	0.6926449879442779
81	1.528301886792453	0.3080083468637871	0.7147273410037626	0.5131195881385735	0.2730094063047779	0.8177076369689373	0.9410559247030885	0.2937153666752081	1.0434564265707809	1.3738992052783314	0.25050928392833205	0.8188944634580643	1.4045389147374931	0.31246606746070676	0.8652052732191121	1.419696898830587	0.2766536830138589	1.1507307653923788	1.4384181693266824	0.09921797602572592	0.7212664407822756	0.505550120996328	0.1020433649911091	0.8740216724386138	0.9369394990391273	0.10079137895439062	1.0290571520331624	1.35662557208156	0.10246840958328915	0.7935111051784209	1.3749377920716876	0.055014326320791014	0.840651421570342	1.3804050820993048	0.1129036587748852	1.0989078260793608	1.4155480074893318	0.21305040122390928	0.5640926772505881	-0.018473764347366403	0.20861035222163618	0.3862837214467397	-0.24458018310661686	0.1866461284003344	0.3710033447246156	-0.08382985193071982	0.3662970141263571	0.5838084326071639	0.057185573797018135	0.40483297841427857	0.6886053549363941	0.3213109622168114	0.3818725953376872	0.6509439246517843	0.5812122368321642	0.32649693565968935	0.6383176713399223	0.7054037607183388	0.3483571886871297	0.6814769493688232	0.735667721347502	0.36670818206703354	0.7061215204310484	0.7250146484647713	0.06204935722878155	0.6260259714804659	0.03682091816332175	0.017844830281478426	0.6332589383985873	0.2976732178603631	0.010554798930111247	0.6755527320634709	0.5740431378232773	0.03578397855668485	0.6908945554516894	0.6809499605433931	0.007313553590032634	0.6891296470855045	0.7004576533892423	-0.01950633901630355	0.7309264785936459	0.6925831951262043
82	1.5471698113207548	0.30865495940218607	0.7171817181176839	0.5171328459444738	0.2776905913798875	0.8317554898409224	0.9434932698907933	0.2939032019097494	1.04287317146195	1.3781039774160821	0.24531715665018242	0.8021380212338413	1.395629702205878	0.30833742078580595	0.8520111721554461	1.415363774275423	0.2765193333582579	1.1505006908381432	1.438013899316545	0.10388318725281606	0.7089058971657236	0.5094618305914069	0.1018721419000522	0.8737152225175564	0.936905422067255	0.10065079233031325	1.0285349381740716	1.356299290327033	0.10342852699880126	0.7921413008986123	1.3710420312542975	0.05498235481171982	0.8407465471696838	1.3804072796576712	0.10907381620961051	1.1224186391518827	1.4225907759841034	0.21318162210625782	0.5638192500777035	-0.01832832860955386	0.204763115267151	0.3747528253607606	-0.24193108354788023	0.1831078209674382	0.38254225867025327	-0.08559427788354841	0.3618724354895651	0.5717863554204388	0.05859508264137921	0.40477552845359854	0.6888355821085957	0.3215390236868208	0.3775510739561453	0.6504137222558097	0.585097543618048	0.32149481145616243	0.6260409786333091	0.70809914423271	0.34348313025900884	0.6681427661191838	0.7337052096261869	0.3666384284445734	0.7059436566358223	0.7255913472047694	0.06207552372626201	0.6260483494872351	0.03682527306764901	0.01789191450013127	0.6332732411496834	0.2976579758824864	0.01060149476053888	0.6755779409809309	0.5740260117510411	0.0355939510974635	0.6908265752104394	0.681004200986735	0.007239883763883218	0.6891376862807795	0.7004338386925887	-0.022474249413066007	0.7170213712046337	0.6912464771382656
83	1.5660377358490567	0.30824516858081674	0.7187787572253689	0.5210544573771061	0.2777892168297272	0.8314655412692304	0.9473813767387445	0.2938822524574791	1.0427789863203678	1.3781970755837933	0.24463993411770904	0.7994328881247265	1.395077867633857	0.3073552497467005	0.8486172229026576	1.4148948060568252	0.2766446628473647	1.15082953305259	1.4385195498057843	0.1040110524365008	0.7089940700395577	0.509602243606562	0.10204593986481375	0.8735353094537313	0.9408901992336459	0.10084519798308708	1.0285252096078605	1.3609871422335267	0.10251208907915227	0.7934579013119956	1.3747106645682843	0.055262354623694346	0.8403456430146721	1.380138789389422	0.1137574920656208	1.1014854012970132	1.421140828102152	0.21683937846966259	0.5506074905208048	-0.01644500835043447	0.2045696839115093	0.37410523603608853	-0.24171023003276074	0.18308184257065846	0.3828229721617995	-0.08539802341605945	0.3690479633619901	0.569899113524597	0.05874859745205138	0.40481728871040706	0.6888462197321048	0.32164782864635993	0.372803064812913	0.6505550397531822	0.5851874874419528	0.325151106540738	0.6120329021868137	0.7056746020425498	0.34352760286972095	0.6681926552784682	0.7335650192365644	0.36649688934320335	0.706850691727122	0.7259658633143202	0.062135290467679856	0.6259521897557219	0.03683054198692152	0.017984448700576756	0.6333061603810013	0.29764024412088463	0.010537132509449421	0.6756293537312051	0.5740080930375031	0.03513594763427073	0.6917414032665706	0.6880023780657794	0.007185107864977973	0.6890426802992499	0.7004913244443548	-0.022383688816229055	0.7172899143065918	0.6952348432701643
